<svg width="365" height="488" viewBox="0 0 365 488" fill="none" xmlns="http://www.w3.org/2000/svg">
<circle cx="239.5" cy="267.5" r="110.5" fill="#7B80B8"/>
<path fill-rule="evenodd" clip-rule="evenodd" d="M150.716 166.07C124.233 190.243 106.687 223.755 102.961 260.885C97.5651 262.617 91.8844 263.756 85.9891 264.221C44.9714 267.457 9.09634 236.83 5.85997 195.812C2.6236 154.794 33.2514 118.919 74.2692 115.683C109.008 112.942 140.058 134.491 150.716 166.07Z" fill="#6AAF41"/>
<path fill-rule="evenodd" clip-rule="evenodd" d="M115.807 325.951C132.237 357.821 160.013 383.501 194.886 396.781C195.15 402.442 194.769 408.223 193.68 414.036C186.107 454.478 147.183 481.124 106.741 473.551C66.2983 465.977 39.6527 427.053 47.226 386.611C53.6399 352.359 82.5415 328.004 115.807 325.951Z" fill="#CB1C2B"/>
<path fill-rule="evenodd" clip-rule="evenodd" d="M312.154 157.15C281.643 138.315 244.603 130.635 207.876 137.239C204.73 132.525 202.076 127.375 200.011 121.834C185.646 83.2778 205.256 40.3765 243.812 26.011C282.368 11.6455 325.269 31.2558 339.635 69.8117C351.801 102.466 339.597 138.237 312.154 157.15Z" fill="#F2B70F"/>
</svg>
