<?xml version="1.0" encoding="UTF-8"?>
<!DOCTYPE svg PUBLIC "-//W3C//DTD SVG 1.1//EN" "http://www.w3.org/Graphics/SVG/1.1/DTD/svg11.dtd">
<svg xmlns="http://www.w3.org/2000/svg" version="1.1" width="300px" height="300px" style="shape-rendering:geometricPrecision; text-rendering:geometricPrecision; image-rendering:optimizeQuality; fill-rule:evenodd; clip-rule:evenodd" xmlns:xlink="http://www.w3.org/1999/xlink">
<g><path style="opacity:1" fill="#fefefe" d="M -0.5,-0.5 C 11.1667,-0.5 22.8333,-0.5 34.5,-0.5C 110.665,0.499265 186.998,0.832598 263.5,0.5C 263.5,100.167 263.5,199.833 263.5,299.5C 175.5,299.5 87.5,299.5 -0.5,299.5C -0.5,199.5 -0.5,99.5 -0.5,-0.5 Z"/></g>
<g><path style="opacity:1" fill="#fefffe" d="M 264.5,-0.5 C 276.167,-0.5 287.833,-0.5 299.5,-0.5C 299.5,99.5 299.5,199.5 299.5,299.5C 287.833,299.5 276.167,299.5 264.5,299.5C 264.5,199.5 264.5,99.5 264.5,-0.5 Z"/></g>
<g><path style="opacity:1" fill="#f2f2f2" d="M 34.5,-0.5 C 111.167,-0.5 187.833,-0.5 264.5,-0.5C 264.5,99.5 264.5,199.5 264.5,299.5C 264.167,299.5 263.833,299.5 263.5,299.5C 263.5,199.833 263.5,100.167 263.5,0.5C 186.998,0.832598 110.665,0.499265 34.5,-0.5 Z"/></g>
<g><path style="opacity:1" fill="#2c2c2c" d="M 56.5,17.5 C 117.833,17.5 179.167,17.5 240.5,17.5C 240.5,34.1667 240.5,50.8333 240.5,67.5C 198.167,67.5 155.833,67.5 113.5,67.5C 113.5,74.1667 113.5,80.8333 113.5,87.5C 155.33,88.4987 197.33,88.832 239.5,88.5C 239.5,104.167 239.5,119.833 239.5,135.5C 197.5,135.5 155.5,135.5 113.5,135.5C 113.5,143.167 113.5,150.833 113.5,158.5C 155.833,158.5 198.167,158.5 240.5,158.5C 240.5,174.167 240.5,189.833 240.5,205.5C 179.167,205.5 117.833,205.5 56.5,205.5C 56.5,142.833 56.5,80.1667 56.5,17.5 Z"/></g>
<g><path style="opacity:1" fill="#3d3d3d" d="M 113.5,87.5 C 155.833,87.5 198.167,87.5 240.5,87.5C 240.5,103.5 240.5,119.5 240.5,135.5C 240.167,135.5 239.833,135.5 239.5,135.5C 239.5,119.833 239.5,104.167 239.5,88.5C 197.33,88.832 155.33,88.4987 113.5,87.5 Z"/></g>
<g><path style="opacity:1" fill="#939393" d="M 239.5,135.5 C 239.833,135.5 240.167,135.5 240.5,135.5C 198.67,136.499 156.67,136.832 114.5,136.5C 114.5,143.5 114.5,150.5 114.5,157.5C 156.67,157.168 198.67,157.501 240.5,158.5C 198.167,158.5 155.833,158.5 113.5,158.5C 113.5,150.833 113.5,143.167 113.5,135.5C 155.5,135.5 197.5,135.5 239.5,135.5 Z"/></g>
<g><path style="opacity:1" fill="#6f6f6f" d="M 56.5,17.5 C 56.5,80.1667 56.5,142.833 56.5,205.5C 117.833,205.5 179.167,205.5 240.5,205.5C 179.002,206.499 117.336,206.832 55.5,206.5C 55.1676,143.331 55.5009,80.3311 56.5,17.5 Z"/></g>
<g><path style="opacity:1" fill="#ea5c29" d="M 56.5,235.5 C 117.833,235.5 179.167,235.5 240.5,235.5C 240.5,251.833 240.5,268.167 240.5,284.5C 179.167,284.5 117.833,284.5 56.5,284.5C 56.5,268.167 56.5,251.833 56.5,235.5 Z"/></g>
<g><path style="opacity:1" fill="#ef8057" d="M 56.5,235.5 C 56.5,251.833 56.5,268.167 56.5,284.5C 117.833,284.5 179.167,284.5 240.5,284.5C 179.002,285.499 117.336,285.832 55.5,285.5C 55.1702,268.658 55.5035,251.992 56.5,235.5 Z"/></g>
</svg>
