<?xml version="1.0" encoding="UTF-8" standalone="no"?>
<!-- Created with Inkscape (http://www.inkscape.org/) -->

<svg
   width="210mm"
   height="297mm"
   viewBox="0 0 210 297"
   version="1.1"
   id="svg609"
   inkscape:version="1.1.2 (0a00cf5339, 2022-02-04)"
   sodipodi:docname="drawing.svg"
   xmlns:inkscape="http://www.inkscape.org/namespaces/inkscape"
   xmlns:sodipodi="http://sodipodi.sourceforge.net/DTD/sodipodi-0.dtd"
   xmlns="http://www.w3.org/2000/svg"
   xmlns:svg="http://www.w3.org/2000/svg">
  <sodipodi:namedview
     id="namedview611"
     pagecolor="#ffffff"
     bordercolor="#666666"
     borderopacity="1.0"
     inkscape:pageshadow="2"
     inkscape:pageopacity="0.0"
     inkscape:pagecheckerboard="0"
     inkscape:document-units="mm"
     showgrid="false"
     inkscape:zoom="0.75188927"
     inkscape:cx="408.96979"
     inkscape:cy="406.30983"
     inkscape:window-width="1868"
     inkscape:window-height="1016"
     inkscape:window-x="52"
     inkscape:window-y="27"
     inkscape:window-maximized="1"
     inkscape:current-layer="layer1" />
  <defs
     id="defs606">
    <radialGradient
       id="SVGID_1_-3"
       cx="77.371696"
       cy="-15.6008"
       r="19.940001"
       gradientTransform="matrix(7.2743786,0,0,-6.6777808,-455.02785,-3.5137511)"
       gradientUnits="userSpaceOnUse">
      <stop
         offset="5.000000e-02"
         style="stop-color:#F99B1C"
         id="stop59-6" />
      <stop
         offset="1"
         style="stop-color:#FEBC11"
         id="stop61-7" />
    </radialGradient>
  </defs>
  <g
     inkscape:label="Layer 1"
     inkscape:groupmode="layer"
     id="layer1">
    <path
       class="st0"
       d="m 208.69927,95.478864 c 0,-52.835187 -47.16357,-95.39704866 -104.71909,-95.39704866 -57.555527,0 -103.91970003,43.29545366 -103.91970003,96.13064066 0,40.360264 27.97838003,76.317594 68.74687903,90.260254 -31.975294,17.61173 -42.367262,55.77038 -22.382706,85.12346 5.595678,8.80587 14.388882,16.87788 23.981469,22.01468 7.993821,3.66905 17.586409,0.73497 21.583321,-5.87069 3.996913,-6.60426 1.598775,-15.41013 -5.595675,-19.07947 -17.586409,-9.53974 -23.182087,-29.35279 -13.5895,-45.49678 9.592588,-16.14427 31.975282,-21.28107 49.561712,-12.47521 17.5864,9.53973 23.18207,29.35307 13.58948,45.49706 -3.19752,5.1368 -7.99381,9.53974 -13.58948,12.47493 -7.19444,4.40293 -9.59259,13.20881 -4.79629,20.54722 4.79629,6.60426 13.58947,8.80585 20.78392,5.1368 32.77468,-17.61174 43.96604,-55.77067 24.78087,-85.12347 -5.5957,-8.80586 -13.58951,-16.87786 -23.98147,-22.01466 42.36723,-14.67653 69.54626,-51.36773 69.54626,-91.727716 z m -70.34566,54.302656 c -7.99382,3.66906 -17.5864,1.46718 -21.58333,-5.1368 -3.99689,-6.60426 -1.59886,-15.41013 5.5957,-19.0792 17.5864,-9.53973 23.18207,-29.353064 13.58948,-45.497057 C 125.5635,63.924471 103.98018,58.787671 86.393768,67.593535 c -17.586409,9.539733 -23.182087,29.35279 -13.5895,45.497055 3.197529,5.13653 7.993822,9.53946 13.5895,12.47493 7.993822,3.66907 11.19135,12.47494 7.194441,19.81306 -3.996912,7.33841 -13.5895,10.27361 -21.583323,6.60454 -0.799372,0 -1.598774,-0.73497 -2.398146,-1.46718 C 36.832065,132.90421 25.640712,94.745552 44.82589,64.658894 64.011065,34.571959 105.57895,24.298637 138.35361,41.910365 c 32.77468,17.611728 43.96604,55.770382 24.78087,85.857045 -5.5957,8.80587 -14.38888,16.87786 -24.78087,22.01466 z"
       id="path64-5"
       style="fill:url(#SVGID_1_-3);stroke-width:7.65899" />
  </g>
</svg>
